<svg width="3032" height="241" viewBox="0 0 3032 241" fill="none" xmlns="http://www.w3.org/2000/svg">
	<title>California Accountability Panel</title>
	<g clip-path="url(#clip0_2_59)">
		<circle cx="120" cy="120" r="53" fill="white"/>
		<path d="M241 120.5C241 187.05 187.05 241 120.5 241C53.9497 241 0 187.05 0 120.5C0 53.9497 53.9497 0 120.5 0C187.05 0 241 53.9497 241 120.5ZM67.3969 120.5C67.3969 149.828 91.172 173.603 120.5 173.603C149.828 173.603 173.603 149.828 173.603 120.5C173.603 91.172 149.828 67.3969 120.5 67.3969C91.172 67.3969 67.3969 91.172 67.3969 120.5Z"
			  fill="#F52B5C"/>
		<path d="M58.4929 183.07C54.0797 183.253 50.6504 186.979 50.8335 191.392C51.0165 195.806 54.7426 199.235 59.1559 199.052L58.8244 191.061L58.4929 183.07ZM204.21 35.7235L137.038 99.0994L225.509 125.584L204.21 35.7235ZM58.8244 191.061L59.1559 199.052C97.9964 197.441 126.565 185.714 147.738 168.506C168.808 151.383 182.01 129.279 190.955 107.742L183.569 104.675L176.183 101.607C167.859 121.649 155.987 141.191 137.65 156.093C119.418 170.91 94.248 181.587 58.4929 183.07L58.8244 191.061Z"
			  fill="#081841"/>
		<path d="M379.8 193.6C370.333 193.6 361.433 191.733 353.1 188C344.767 184.2 337.433 178.967 331.1 172.3C324.833 165.633 319.9 157.933 316.3 149.2C312.767 140.4 311 131 311 121C311 110.933 312.767 101.533 316.3 92.8C319.9 84 324.833 76.3 331.1 69.7C337.433 63.0333 344.767 57.8333 353.1 54.1C361.433 50.3 370.333 48.4 379.8 48.4C391.133 48.4 401.567 51.0333 411.1 56.3C420.633 61.5 428.533 68.4667 434.8 77.2L413 88.9C409.067 84.0333 404.167 80.1333 398.3 77.2C392.5 74.2667 386.333 72.8 379.8 72.8C373.667 72.8 367.9 74.0667 362.5 76.6C357.1 79.0667 352.367 82.5333 348.3 87C344.233 91.4 341.067 96.5333 338.8 102.4C336.533 108.2 335.4 114.4 335.4 121C335.4 127.667 336.533 133.9 338.8 139.7C341.133 145.5 344.333 150.633 348.4 155.1C352.467 159.5 357.167 162.967 362.5 165.5C367.9 167.967 373.667 169.2 379.8 169.2C386.467 169.2 392.667 167.733 398.4 164.8C404.2 161.8 409.067 157.867 413 153L434.8 164.8C428.533 173.467 420.633 180.433 411.1 185.7C401.567 190.967 391.133 193.6 379.8 193.6ZM523.798 91H548.198V191H523.798L522.698 178.6C519.965 183.067 516.332 186.7 511.798 189.5C507.332 192.233 502.032 193.6 495.898 193.6C488.498 193.6 481.565 192.2 475.098 189.4C468.632 186.6 462.932 182.733 457.998 177.8C453.132 172.867 449.298 167.167 446.498 160.7C443.765 154.233 442.398 147.3 442.398 139.9C442.398 132.767 443.698 126.067 446.298 119.8C448.965 113.533 452.665 108.033 457.398 103.3C462.132 98.5667 467.598 94.8667 473.798 92.2C479.998 89.5333 486.665 88.2 493.798 88.2C500.398 88.2 506.298 89.6667 511.498 92.6C516.765 95.5333 521.232 99.2667 524.898 103.8L523.798 91ZM495.298 170.1C500.498 170.1 505.098 168.8 509.098 166.2C513.098 163.6 516.232 160.1 518.498 155.7C520.765 151.233 521.898 146.333 521.898 141C521.898 135.6 520.765 130.7 518.498 126.3C516.232 121.833 513.065 118.3 508.998 115.7C504.998 113.1 500.432 111.8 495.298 111.8C490.165 111.8 485.465 113.133 481.198 115.8C476.998 118.4 473.632 121.9 471.098 126.3C468.632 130.7 467.398 135.6 467.398 141C467.398 146.4 468.665 151.3 471.198 155.7C473.732 160.1 477.098 163.6 481.298 166.2C485.565 168.8 490.232 170.1 495.298 170.1ZM568.711 191V41H593.111V191H568.711ZM617.148 91H641.548V191H617.148V91ZM629.548 78.1C625.948 78.1 622.915 76.9333 620.448 74.6C617.982 72.2 616.748 69.2 616.748 65.6C616.748 62.0667 617.982 59.1 620.448 56.7C622.915 54.3 625.915 53.1 629.448 53.1C632.982 53.1 635.948 54.3 638.348 56.7C640.815 59.1 642.048 62.0667 642.048 65.6C642.048 69.2 640.848 72.2 638.448 74.6C636.048 76.9333 633.082 78.1 629.548 78.1ZM693.886 70V91H721.186V115.4H693.886V191H669.486V115.4H658.586V91H669.486V70C669.486 64.2667 670.886 59.0333 673.686 54.3C676.553 49.5 680.386 45.7 685.186 42.9C689.986 40.0333 695.286 38.6 701.086 38.6C705.286 38.6 709.453 39.4667 713.586 41.2C717.719 42.9333 721.386 45.6 724.586 49.2L706.986 66.4C706.386 65.2667 705.519 64.4333 704.386 63.9C703.319 63.3 702.219 63 701.086 63C699.153 63 697.453 63.7 695.986 65.1C694.586 66.4333 693.886 68.0667 693.886 70ZM779.703 193.6C770.503 193.6 762.103 191.233 754.503 186.5C746.97 181.767 740.936 175.433 736.403 167.5C731.936 159.5 729.703 150.667 729.703 141C729.703 133.667 731.003 126.833 733.603 120.5C736.203 114.1 739.77 108.5 744.303 103.7C748.903 98.8333 754.236 95.0333 760.303 92.3C766.37 89.5667 772.836 88.2 779.703 88.2C788.903 88.2 797.27 90.5667 804.803 95.3C812.403 100.033 818.436 106.4 822.903 114.4C827.436 122.4 829.703 131.267 829.703 141C829.703 148.267 828.403 155.067 825.803 161.4C823.203 167.733 819.603 173.333 815.003 178.2C810.47 183 805.17 186.767 799.103 189.5C793.103 192.233 786.636 193.6 779.703 193.6ZM779.703 169.2C784.57 169.2 788.936 167.9 792.803 165.3C796.67 162.7 799.703 159.267 801.903 155C804.17 150.733 805.303 146.067 805.303 141C805.303 135.8 804.136 131.067 801.803 126.8C799.536 122.467 796.436 119.033 792.503 116.5C788.636 113.9 784.37 112.6 779.703 112.6C774.903 112.6 770.57 113.9 766.703 116.5C762.836 119.1 759.77 122.567 757.503 126.9C755.236 131.233 754.103 135.933 754.103 141C754.103 146.267 755.27 151.033 757.603 155.3C759.936 159.567 763.036 162.967 766.903 165.5C770.836 167.967 775.103 169.2 779.703 169.2ZM845.373 191L845.273 91H869.673L869.773 99.9C873.173 96.3 877.24 93.4667 881.973 91.4C886.707 89.2667 891.807 88.2 897.273 88.2C900.94 88.2 904.607 88.7333 908.273 89.8L898.673 114.4C896.14 113.4 893.607 112.9 891.073 112.9C887.14 112.9 883.54 113.867 880.273 115.8C877.073 117.667 874.507 120.233 872.573 123.5C870.707 126.7 869.773 130.267 869.773 134.2V191H845.373ZM1011.48 127.8V191H987.083V134.2C987.083 130.267 986.116 126.7 984.183 123.5C982.249 120.233 979.649 117.667 976.383 115.8C973.183 113.867 969.616 112.9 965.683 112.9C961.749 112.9 958.149 113.867 954.883 115.8C951.683 117.667 949.116 120.233 947.183 123.5C945.316 126.7 944.383 130.267 944.383 134.2V191H919.983L919.883 91H944.283L944.383 99.9C947.783 96.3 951.849 93.4667 956.583 91.4C961.316 89.2667 966.416 88.2 971.883 88.2C979.149 88.2 985.783 90 991.783 93.6C997.783 97.1333 1002.55 101.9 1006.08 107.9C1009.68 113.833 1011.48 120.467 1011.48 127.8ZM1031.41 91H1055.81V191H1031.41V91ZM1043.81 78.1C1040.21 78.1 1037.17 76.9333 1034.71 74.6C1032.24 72.2 1031.01 69.2 1031.01 65.6C1031.01 62.0667 1032.24 59.1 1034.71 56.7C1037.17 54.3 1040.17 53.1 1043.71 53.1C1047.24 53.1 1050.21 54.3 1052.61 56.7C1055.07 59.1 1056.31 62.0667 1056.31 65.6C1056.31 69.2 1055.11 72.2 1052.71 74.6C1050.31 76.9333 1047.34 78.1 1043.81 78.1ZM1152.9 91H1177.3V191H1152.9L1151.8 178.6C1149.07 183.067 1145.43 186.7 1140.9 189.5C1136.43 192.233 1131.13 193.6 1125 193.6C1117.6 193.6 1110.67 192.2 1104.2 189.4C1097.73 186.6 1092.03 182.733 1087.1 177.8C1082.23 172.867 1078.4 167.167 1075.6 160.7C1072.87 154.233 1071.5 147.3 1071.5 139.9C1071.5 132.767 1072.8 126.067 1075.4 119.8C1078.07 113.533 1081.77 108.033 1086.5 103.3C1091.23 98.5667 1096.7 94.8667 1102.9 92.2C1109.1 89.5333 1115.77 88.2 1122.9 88.2C1129.5 88.2 1135.4 89.6667 1140.6 92.6C1145.87 95.5333 1150.33 99.2667 1154 103.8L1152.9 91ZM1124.4 170.1C1129.6 170.1 1134.2 168.8 1138.2 166.2C1142.2 163.6 1145.33 160.1 1147.6 155.7C1149.87 151.233 1151 146.333 1151 141C1151 135.6 1149.87 130.7 1147.6 126.3C1145.33 121.833 1142.17 118.3 1138.1 115.7C1134.1 113.1 1129.53 111.8 1124.4 111.8C1119.27 111.8 1114.57 113.133 1110.3 115.8C1106.1 118.4 1102.73 121.9 1100.2 126.3C1097.73 130.7 1096.5 135.6 1096.5 141C1096.5 146.4 1097.77 151.3 1100.3 155.7C1102.83 160.1 1106.2 163.6 1110.4 166.2C1114.67 168.8 1119.33 170.1 1124.4 170.1ZM1292.07 51H1320.17L1371.07 191H1345.17L1336.17 166.2H1276.17L1267.17 191H1241.27L1292.07 51ZM1285.07 141.8H1327.17L1306.07 84.1L1285.07 141.8ZM1443.02 160.9L1465.02 172.8C1460.42 179.067 1454.65 184.1 1447.72 187.9C1440.78 191.7 1433.22 193.6 1425.02 193.6C1415.82 193.6 1407.42 191.233 1399.82 186.5C1392.28 181.767 1386.25 175.433 1381.72 167.5C1377.25 159.5 1375.02 150.667 1375.02 141C1375.02 133.667 1376.32 126.833 1378.92 120.5C1381.52 114.1 1385.08 108.5 1389.62 103.7C1394.22 98.8333 1399.55 95.0333 1405.62 92.3C1411.68 89.5667 1418.15 88.2 1425.02 88.2C1433.22 88.2 1440.78 90.1 1447.72 93.9C1454.65 97.7 1460.42 102.8 1465.02 109.2L1443.02 121C1440.68 118.333 1437.92 116.267 1434.72 114.8C1431.58 113.333 1428.35 112.6 1425.02 112.6C1420.22 112.6 1415.88 113.933 1412.02 116.6C1408.15 119.2 1405.08 122.667 1402.82 127C1400.55 131.267 1399.42 135.933 1399.42 141C1399.42 146 1400.55 150.667 1402.82 155C1405.08 159.267 1408.15 162.7 1412.02 165.3C1415.88 167.9 1420.22 169.2 1425.02 169.2C1428.48 169.2 1431.78 168.467 1434.92 167C1438.05 165.467 1440.75 163.433 1443.02 160.9ZM1541.84 160.9L1563.84 172.8C1559.24 179.067 1553.48 184.1 1546.54 187.9C1539.61 191.7 1532.04 193.6 1523.84 193.6C1514.64 193.6 1506.24 191.233 1498.64 186.5C1491.11 181.767 1485.08 175.433 1480.54 167.5C1476.08 159.5 1473.84 150.667 1473.84 141C1473.84 133.667 1475.14 126.833 1477.74 120.5C1480.34 114.1 1483.91 108.5 1488.44 103.7C1493.04 98.8333 1498.38 95.0333 1504.44 92.3C1510.51 89.5667 1516.98 88.2 1523.84 88.2C1532.04 88.2 1539.61 90.1 1546.54 93.9C1553.48 97.7 1559.24 102.8 1563.84 109.2L1541.84 121C1539.51 118.333 1536.74 116.267 1533.54 114.8C1530.41 113.333 1527.18 112.6 1523.84 112.6C1519.04 112.6 1514.71 113.933 1510.84 116.6C1506.98 119.2 1503.91 122.667 1501.64 127C1499.38 131.267 1498.24 135.933 1498.24 141C1498.24 146 1499.38 150.667 1501.64 155C1503.91 159.267 1506.98 162.7 1510.84 165.3C1514.71 167.9 1519.04 169.2 1523.84 169.2C1527.31 169.2 1530.61 168.467 1533.74 167C1536.88 165.467 1539.58 163.433 1541.84 160.9ZM1622.67 193.6C1613.47 193.6 1605.07 191.233 1597.47 186.5C1589.94 181.767 1583.91 175.433 1579.37 167.5C1574.91 159.5 1572.67 150.667 1572.67 141C1572.67 133.667 1573.97 126.833 1576.57 120.5C1579.17 114.1 1582.74 108.5 1587.27 103.7C1591.87 98.8333 1597.21 95.0333 1603.27 92.3C1609.34 89.5667 1615.81 88.2 1622.67 88.2C1631.87 88.2 1640.24 90.5667 1647.77 95.3C1655.37 100.033 1661.41 106.4 1665.87 114.4C1670.41 122.4 1672.67 131.267 1672.67 141C1672.67 148.267 1671.37 155.067 1668.77 161.4C1666.17 167.733 1662.57 173.333 1657.97 178.2C1653.44 183 1648.14 186.767 1642.07 189.5C1636.07 192.233 1629.61 193.6 1622.67 193.6ZM1622.67 169.2C1627.54 169.2 1631.91 167.9 1635.77 165.3C1639.64 162.7 1642.67 159.267 1644.87 155C1647.14 150.733 1648.27 146.067 1648.27 141C1648.27 135.8 1647.11 131.067 1644.77 126.8C1642.51 122.467 1639.41 119.033 1635.47 116.5C1631.61 113.9 1627.34 112.6 1622.67 112.6C1617.87 112.6 1613.54 113.9 1609.67 116.5C1605.81 119.1 1602.74 122.567 1600.47 126.9C1598.21 131.233 1597.07 135.933 1597.07 141C1597.07 146.267 1598.24 151.033 1600.57 155.3C1602.91 159.567 1606.01 162.967 1609.87 165.5C1613.81 167.967 1618.07 169.2 1622.67 169.2ZM1682.09 154V91H1706.49V147.6C1706.49 151.533 1707.46 155.133 1709.39 158.4C1711.33 161.6 1713.89 164.167 1717.09 166.1C1720.36 167.967 1723.93 168.9 1727.79 168.9C1731.79 168.9 1735.39 167.967 1738.59 166.1C1741.79 164.167 1744.36 161.6 1746.29 158.4C1748.23 155.133 1749.19 151.533 1749.19 147.6V91H1773.59L1773.69 191H1749.29L1749.19 181.9C1745.73 185.5 1741.63 188.367 1736.89 190.5C1732.16 192.567 1727.09 193.6 1721.69 193.6C1714.43 193.6 1707.79 191.833 1701.79 188.3C1695.79 184.7 1690.99 179.933 1687.39 174C1683.86 168 1682.09 161.333 1682.09 154ZM1885.31 127.8V191H1860.91V134.2C1860.91 130.267 1859.94 126.7 1858.01 123.5C1856.08 120.233 1853.48 117.667 1850.21 115.8C1847.01 113.867 1843.44 112.9 1839.51 112.9C1835.58 112.9 1831.98 113.867 1828.71 115.8C1825.51 117.667 1822.94 120.233 1821.01 123.5C1819.14 126.7 1818.21 130.267 1818.21 134.2V191H1793.81L1793.71 91H1818.11L1818.21 99.9C1821.61 96.3 1825.68 93.4667 1830.41 91.4C1835.14 89.2667 1840.24 88.2 1845.71 88.2C1852.98 88.2 1859.61 90 1865.61 93.6C1871.61 97.1333 1876.38 101.9 1879.91 107.9C1883.51 113.833 1885.31 120.467 1885.31 127.8ZM1958.83 115.4H1939.43V191H1915.03V115.4H1900.23V91H1915.03V59.6H1939.43V91H1958.83V115.4ZM2049.97 91H2074.37V191H2049.97L2048.87 178.6C2046.14 183.067 2042.5 186.7 2037.97 189.5C2033.5 192.233 2028.2 193.6 2022.07 193.6C2014.67 193.6 2007.74 192.2 2001.27 189.4C1994.8 186.6 1989.1 182.733 1984.17 177.8C1979.3 172.867 1975.47 167.167 1972.67 160.7C1969.94 154.233 1968.57 147.3 1968.57 139.9C1968.57 132.767 1969.87 126.067 1972.47 119.8C1975.14 113.533 1978.84 108.033 1983.57 103.3C1988.3 98.5667 1993.77 94.8667 1999.97 92.2C2006.17 89.5333 2012.84 88.2 2019.97 88.2C2026.57 88.2 2032.47 89.6667 2037.67 92.6C2042.94 95.5333 2047.4 99.2667 2051.07 103.8L2049.97 91ZM2021.47 170.1C2026.67 170.1 2031.27 168.8 2035.27 166.2C2039.27 163.6 2042.4 160.1 2044.67 155.7C2046.94 151.233 2048.07 146.333 2048.07 141C2048.07 135.6 2046.94 130.7 2044.67 126.3C2042.4 121.833 2039.24 118.3 2035.17 115.7C2031.17 113.1 2026.6 111.8 2021.47 111.8C2016.34 111.8 2011.64 113.133 2007.37 115.8C2003.17 118.4 1999.8 121.9 1997.27 126.3C1994.8 130.7 1993.57 135.6 1993.57 141C1993.57 146.4 1994.84 151.3 1997.37 155.7C1999.9 160.1 2003.27 163.6 2007.47 166.2C2011.74 168.8 2016.4 170.1 2021.47 170.1ZM2148.08 88.2C2157.82 88.2 2166.68 90.5667 2174.68 95.3C2182.68 100.033 2189.05 106.4 2193.78 114.4C2198.52 122.333 2200.88 131.133 2200.88 140.8C2200.88 148.067 2199.52 154.9 2196.78 161.3C2194.05 167.7 2190.25 173.333 2185.38 178.2C2180.58 183 2174.98 186.767 2168.58 189.5C2162.25 192.233 2155.42 193.6 2148.08 193.6C2141.82 193.6 2136.25 192.2 2131.38 189.4C2126.58 186.533 2122.55 182.833 2119.28 178.3V191H2094.88V41H2119.28V103.5C2122.55 98.9667 2126.58 95.3 2131.38 92.5C2136.25 89.6333 2141.82 88.2 2148.08 88.2ZM2147.78 170C2152.98 170 2157.68 168.7 2161.88 166.1C2166.15 163.433 2169.55 159.9 2172.08 155.5C2174.62 151.1 2175.88 146.2 2175.88 140.8C2175.88 135.467 2174.62 130.6 2172.08 126.2C2169.55 121.733 2166.15 118.2 2161.88 115.6C2157.62 113 2152.92 111.7 2147.78 111.7C2142.72 111.7 2138.18 113.033 2134.18 115.7C2130.18 118.3 2127.05 121.833 2124.78 126.3C2122.52 130.7 2121.38 135.533 2121.38 140.8C2121.38 146.2 2122.52 151.133 2124.78 155.6C2127.05 160 2130.18 163.5 2134.18 166.1C2138.18 168.7 2142.72 170 2147.78 170ZM2214.41 91H2238.81V191H2214.41V91ZM2226.81 78.1C2223.21 78.1 2220.18 76.9333 2217.71 74.6C2215.25 72.2 2214.01 69.2 2214.01 65.6C2214.01 62.0667 2215.25 59.1 2217.71 56.7C2220.18 54.3 2223.18 53.1 2226.71 53.1C2230.25 53.1 2233.21 54.3 2235.61 56.7C2238.08 59.1 2239.31 62.0667 2239.31 65.6C2239.31 69.2 2238.11 72.2 2235.71 74.6C2233.31 76.9333 2230.35 78.1 2226.81 78.1ZM2263.24 191V41H2287.64V191H2263.24ZM2311.68 91H2336.08V191H2311.68V91ZM2324.08 78.1C2320.48 78.1 2317.45 76.9333 2314.98 74.6C2312.51 72.2 2311.28 69.2 2311.28 65.6C2311.28 62.0667 2312.51 59.1 2314.98 56.7C2317.45 54.3 2320.45 53.1 2323.98 53.1C2327.51 53.1 2330.48 54.3 2332.88 56.7C2335.35 59.1 2336.58 62.0667 2336.58 65.6C2336.58 69.2 2335.38 72.2 2332.98 74.6C2330.58 76.9333 2327.61 78.1 2324.08 78.1ZM2413.72 115.4H2394.32V191H2369.92V115.4H2355.12V91H2369.92V59.6H2394.32V91H2413.72V115.4ZM2496.49 91H2522.39L2467.69 241H2441.79L2459.89 191L2423.89 91H2450.59L2472.09 157.6L2496.49 91ZM2590.39 191V51H2635.19C2642.66 51 2649.39 52.8333 2655.39 56.5C2661.39 60.1 2666.16 65 2669.69 71.2C2673.29 77.3333 2675.09 84.2333 2675.09 91.9C2675.09 99.6333 2673.26 106.6 2669.59 112.8C2665.99 119 2661.16 123.9 2655.09 127.5C2649.09 131.1 2642.46 132.9 2635.19 132.9H2604.39V191H2590.39ZM2604.39 118.9H2634.09C2639.02 118.9 2643.52 117.7 2647.59 115.3C2651.72 112.833 2654.99 109.533 2657.39 105.4C2659.86 101.2 2661.09 96.4667 2661.09 91.2C2661.09 85.9333 2659.86 81.2333 2657.39 77.1C2654.99 72.9 2651.72 69.6 2647.59 67.2C2643.52 64.7333 2639.02 63.5 2634.09 63.5H2604.39V118.9ZM2769.08 91H2783.08V191H2769.08L2768.58 172.4C2765.31 178.733 2760.74 183.867 2754.88 187.8C2749.01 191.667 2742.01 193.6 2733.88 193.6C2726.54 193.6 2719.68 192.233 2713.28 189.5C2706.88 186.7 2701.24 182.867 2696.38 178C2691.51 173.133 2687.71 167.5 2684.98 161.1C2682.24 154.7 2680.88 147.833 2680.88 140.5C2680.88 133.3 2682.21 126.533 2684.88 120.2C2687.61 113.867 2691.34 108.3 2696.08 103.5C2700.88 98.7 2706.41 94.9667 2712.68 92.3C2719.01 89.5667 2725.78 88.2 2732.98 88.2C2741.31 88.2 2748.58 90.2 2754.78 94.2C2760.98 98.1333 2765.91 103.3 2769.58 109.7L2769.08 91ZM2733.58 180C2740.71 180 2746.84 178.267 2751.98 174.8C2757.11 171.267 2761.04 166.533 2763.78 160.6C2766.58 154.667 2767.98 148.133 2767.98 141C2767.98 133.667 2766.58 127.067 2763.78 121.2C2760.98 115.267 2757.01 110.567 2751.88 107.1C2746.74 103.633 2740.64 101.9 2733.58 101.9C2726.51 101.9 2720.04 103.667 2714.18 107.2C2708.38 110.667 2703.74 115.367 2700.28 121.3C2696.88 127.233 2695.18 133.8 2695.18 141C2695.18 148.267 2696.94 154.867 2700.48 160.8C2704.01 166.667 2708.68 171.333 2714.48 174.8C2720.34 178.267 2726.71 180 2733.58 180ZM2890.29 129.1V191H2876.29V131.9C2876.29 126.433 2874.95 121.467 2872.29 117C2869.62 112.533 2866.05 108.967 2861.59 106.3C2857.12 103.633 2852.15 102.3 2846.69 102.3C2841.29 102.3 2836.32 103.633 2831.79 106.3C2827.32 108.967 2823.75 112.533 2821.09 117C2818.42 121.467 2817.09 126.433 2817.09 131.9V191H2803.09V91H2817.09V104.8C2820.62 99.7333 2825.22 95.7 2830.89 92.7C2836.55 89.7 2842.72 88.2 2849.39 88.2C2856.92 88.2 2863.79 90.0333 2869.99 93.7C2876.19 97.3667 2881.12 102.3 2884.79 108.5C2888.45 114.7 2890.29 121.567 2890.29 129.1ZM2952.36 193.6C2943.16 193.6 2934.76 191.233 2927.16 186.5C2919.63 181.767 2913.59 175.433 2909.06 167.5C2904.59 159.5 2902.36 150.667 2902.36 141C2902.36 133.667 2903.66 126.833 2906.26 120.5C2908.86 114.1 2912.43 108.5 2916.96 103.7C2921.56 98.8333 2926.89 95.0333 2932.96 92.3C2939.03 89.5667 2945.49 88.2 2952.36 88.2C2959.76 88.2 2966.56 89.6667 2972.76 92.6C2979.03 95.5333 2984.39 99.6333 2988.86 104.9C2993.39 110.167 2996.79 116.333 2999.06 123.4C3001.39 130.467 3002.36 138.1 3001.96 146.3H2917.16C2917.96 152.633 2919.96 158.3 2923.16 163.3C2926.43 168.3 2930.56 172.267 2935.56 175.2C2940.63 178.067 2946.23 179.533 2952.36 179.6C2959.03 179.6 2965.03 177.867 2970.36 174.4C2975.76 170.933 2980.09 166.167 2983.36 160.1L2997.56 163.4C2993.56 172.267 2987.53 179.533 2979.46 185.2C2971.39 190.8 2962.36 193.6 2952.36 193.6ZM2916.76 135H2987.86C2987.39 128.8 2985.49 123.133 2982.16 118C2978.89 112.8 2974.66 108.667 2969.46 105.6C2964.26 102.467 2958.56 100.9 2952.36 100.9C2946.16 100.9 2940.49 102.433 2935.36 105.5C2930.23 108.5 2926.03 112.6 2922.76 117.8C2919.49 122.933 2917.49 128.667 2916.76 135ZM3018.32 191V41H3032.32V191H3018.32Z"
			  fill="#0A2D3C"/>
	</g>
	<defs>
		<clipPath id="clip0_2_59">
			<rect width="3032" height="241" fill="white"/>
		</clipPath>
	</defs>
</svg>
