<svg width="144" height="144" viewBox="0 0 144 144" fill="none" xmlns="http://www.w3.org/2000/svg">
	<title>Logo circle with up arrow.</title>
	<g clip-path="url(#clip0_33_154)">
		<circle cx="72" cy="72" r="72" fill="white"/>
		<g filter="url(#filter0_d_33_154)">
			<path d="M144 72C144 111.765 111.765 144 72 144C32.2355 144 0 111.765 0 72C0 32.2355 32.2355 0 72 0C111.765 0 144 32.2355 144 72ZM40.2704 72C40.2704 89.5238 54.4762 103.73 72 103.73C89.5238 103.73 103.73 89.5238 103.73 72C103.73 54.4762 89.5238 40.2704 72 40.2704C54.4762 40.2704 40.2704 54.4762 40.2704 72Z"
				  fill="#F52B5C"/>
		</g>
		<g filter="url(#filter1_d_33_154)">
			<path d="M34.95 109.384C32.3117 109.493 30.2616 111.721 30.3711 114.359C30.4805 116.997 32.708 119.047 35.3464 118.938L35.1482 114.161L34.95 109.384ZM122.018 21.3452L81.8583 59.2302L134.747 75.0667L122.018 21.3452ZM35.1482 114.161L35.3464 118.938C58.547 117.976 75.614 110.973 88.2648 100.696C100.853 90.4697 108.743 77.2679 114.09 64.4028L109.674 62.568L105.259 60.7333C100.285 72.7041 93.1905 84.3745 82.2354 93.2737C71.3426 102.122 56.3069 108.498 34.95 109.384L35.1482 114.161Z"
				  fill="#081841"/>
		</g>
	</g>
	<defs>
		<filter id="filter0_d_33_154" x="-1.125" y="0" width="146.25" height="146.25" filterUnits="userSpaceOnUse"
				color-interpolation-filters="sRGB">
			<feFlood flood-opacity="0" result="BackgroundImageFix"/>
			<feColorMatrix in="SourceAlpha" type="matrix" values="0 0 0 0 0 0 0 0 0 0 0 0 0 0 0 0 0 0 127 0"
						   result="hardAlpha"/>
			<feOffset dy="1.125"/>
			<feGaussianBlur stdDeviation="0.5625"/>
			<feComposite in2="hardAlpha" operator="out"/>
			<feColorMatrix type="matrix" values="0 0 0 0 0 0 0 0 0 0 0 0 0 0 0 0 0 0 0.25 0"/>
			<feBlend mode="normal" in2="BackgroundImageFix" result="effect1_dropShadow_33_154"/>
			<feBlend mode="normal" in="SourceGraphic" in2="effect1_dropShadow_33_154" result="shape"/>
		</filter>
		<filter id="filter1_d_33_154" x="29.2419" y="21.3452" width="106.631" height="99.847"
				filterUnits="userSpaceOnUse" color-interpolation-filters="sRGB">
			<feFlood flood-opacity="0" result="BackgroundImageFix"/>
			<feColorMatrix in="SourceAlpha" type="matrix" values="0 0 0 0 0 0 0 0 0 0 0 0 0 0 0 0 0 0 127 0"
						   result="hardAlpha"/>
			<feOffset dy="1.125"/>
			<feGaussianBlur stdDeviation="0.5625"/>
			<feComposite in2="hardAlpha" operator="out"/>
			<feColorMatrix type="matrix" values="0 0 0 0 0 0 0 0 0 0 0 0 0 0 0 0 0 0 0.25 0"/>
			<feBlend mode="normal" in2="BackgroundImageFix" result="effect1_dropShadow_33_154"/>
			<feBlend mode="normal" in="SourceGraphic" in2="effect1_dropShadow_33_154" result="shape"/>
		</filter>
		<clipPath id="clip0_33_154">
			<rect width="144" height="144" fill="white"/>
		</clipPath>
	</defs>
</svg>
